<?xml version="1.0" encoding="utf-8"?>
<!-- Generator: Adobe Illustrator 20.1.0, SVG Export Plug-In . SVG Version: 6.00 Build 0)  -->
<svg version="1.1" id="Layer_1" xmlns="http://www.w3.org/2000/svg" xmlns:xlink="http://www.w3.org/1999/xlink" x="0px" y="0px"
	 viewBox="0 0 400 100" style="enable-background:new 0 0 400 100;" xml:space="preserve">
<style type="text/css">
	.st0{fill:#EF4036;}
	.st1{font-family:'Helvetica-Bold';}
	.st2{font-size:48px;}
	.st3{font-family:'HelveticaNeue-Light';}
</style>
<path class="st0" d="M15.2,60.5c0,0-0.5,5.9,6.1,5.9s6.7-6.3,6.7-6.3V30h30c0,0,6.2,0.1,6.2-6S58,18,58,18H27c0,0-11.8,0.3-11.8,10"
	/>
<text transform="matrix(1 0 0 1 84.6665 63)"><tspan x="0" y="0" class="st1 st2">rounded</tspan><tspan x="192" y="0" class="st3 st2">apps</tspan></text>
<path class="st0" d="M74.2,34.9c0,0,0.3-5.9-6.2-5.9S61,35.3,61,35.3V65H31.4c0,0-6.2-0.1-6.2,6s6.2,6,6.2,6h31
	c0,0,11.8-0.1,11.8-9.8"/>
</svg>
